<svg width="170" height="170" viewBox="0 0 170 170" fill="none" xmlns="http://www.w3.org/2000/svg">
<rect width="170" height="170" rx="85" fill="white"/>
<path d="M140.736 53.0257L84.6672 20.6542L28.5981 53.0257V117.769L84.6672 150.14L140.736 117.769V53.0257Z" fill="#1644F5"/>
<path d="M112.356 57.7084C106.801 52.1535 99.7238 48.3706 92.0189 46.838C84.3141 45.3054 76.3278 46.092 69.07 49.0983C61.8122 52.1045 55.6088 57.1955 51.2443 63.7274C46.8799 70.2592 44.5504 77.9386 44.5504 85.7944C44.5504 93.6502 46.8799 101.33 51.2444 107.861C55.6088 114.393 61.8122 119.484 69.07 122.491C76.3278 125.497 84.3141 126.283 92.0189 124.751C99.7238 123.218 106.801 119.435 112.356 113.88L96.2599 97.7843C93.8885 100.156 90.8672 101.771 87.578 102.425C84.2888 103.079 80.8795 102.743 77.7811 101.46C74.6828 100.177 72.0346 98.0033 70.1714 95.2148C68.3082 92.4264 67.3137 89.148 67.3137 85.7944C67.3137 82.4408 68.3082 79.1625 70.1714 76.374C72.0346 73.5856 74.6828 71.4122 77.7811 70.1289C80.8795 68.8455 84.2888 68.5097 87.578 69.1639C90.8672 69.8182 93.8885 71.4331 96.2599 73.8045L112.356 57.7084Z" fill="white"/>
<path d="M90.9138 86.1649H87.399V81.6458H90.9138V77.6288H95.935V81.6458H99.4498V86.1649H95.935V90.1818H90.9138V86.1649ZM109.147 86.1649H105.632V81.6458H109.147V77.6288H114.168V81.6458H117.683V86.1649H114.168V90.1818H109.147V86.1649Z" fill="white"/>
</svg>
