<svg xmlns="http://www.w3.org/2000/svg" fill="none" viewBox="20.13 20.95 51.47 50">
<path fill-rule="evenodd" clip-rule="evenodd" d="M45.8597 20.9521C31.6413 20.9521 20.125 32.4226 20.125 46.5845C20.125 57.9268 27.4916 67.5069 37.7211 70.9032C39.0078 71.1275 39.4904 70.3585 39.4904 69.6856C39.4904 69.0769 39.4582 67.0583 39.4582 64.9116C32.9924 66.0971 31.3196 63.3416 30.8049 61.8998C30.5154 61.1629 29.2608 58.888 28.1671 58.2793C27.2664 57.7986 25.9796 56.6131 28.1349 56.5811C30.1615 56.5491 31.6091 58.4395 32.0916 59.2084C34.4078 63.0853 38.1071 61.9959 39.5869 61.3231C39.812 59.657 40.4876 58.5356 41.2275 57.8948C35.5015 57.254 29.5182 55.0432 29.5182 45.2388C29.5182 42.4513 30.5154 40.1444 32.156 38.3501C31.8986 37.7093 30.9979 35.082 32.4133 31.5575C32.4133 31.5575 34.5686 30.8847 39.4904 34.1848C41.5491 33.6081 43.7366 33.3198 45.924 33.3198C48.1115 33.3198 50.2989 33.6081 52.3577 34.1848C57.2795 30.8526 59.4348 31.5575 59.4348 31.5575C60.8502 35.082 59.9494 37.7093 59.6921 38.3501C61.3327 40.1444 62.3299 42.4192 62.3299 45.2388C62.3299 55.0752 56.3144 57.254 50.5885 57.8948C51.5213 58.6958 52.3255 60.2337 52.3255 62.6367C52.3255 66.0651 52.2934 68.8206 52.2934 69.6856C52.2934 70.3585 52.7759 71.1595 54.0626 70.9032C64.2278 67.5069 71.5944 57.8948 71.5944 46.5845C71.5944 32.4226 60.0781 20.9521 45.8597 20.9521Z" fill="white"/>
</svg>