<svg width="54" height="41" viewBox="0 0 54 41" fill="none" xmlns="http://www.w3.org/2000/svg">
<path d="M3.9499 40.1846H12.4326V19.5837L0.314453 10.4951V36.5492C0.314453 38.5608 1.94435 40.1846 3.9499 40.1846Z" fill="white"/>
<path d="M41.5156 40.1846H49.9983C52.01 40.1846 53.6338 38.5547 53.6338 36.5492V10.4951L41.5156 19.5837" fill="white"/>
<path d="M41.5156 3.83033V19.5839L53.6338 10.4953V5.64806C53.6338 1.15222 48.5017 -1.41077 44.9087 1.28552" fill="white"/>
<path d="M12.4336 19.5837V3.83008L26.9754 14.7364L41.5172 3.83008V19.5837L26.9754 30.49" fill="white"/>
<path d="M0.314453 5.64806V10.4953L12.4326 19.5839V3.83033L9.03953 1.28552C5.44044 -1.41077 0.314453 1.15222 0.314453 5.64806" fill="white"/>
</svg>
