<svg width="170" height="170" viewBox="0 0 170 170" fill="none" xmlns="http://www.w3.org/2000/svg">
<rect width="170" height="170" rx="85" fill="#E44D26"/>
<rect width="170" height="170" rx="85" fill="#E44D26"/>
<path fill-rule="evenodd" clip-rule="evenodd" d="M134.047 44.0207L124.01 136.943L84.8586 152.104L45.2643 136.943L36 44.0207H84.8586H134.047ZM63.0255 70.6643H111.697V57.9171H56.0725V94.9998H96.0522V112.382L79.8286 115.279L65.9226 112.382V103.691H56.0725V121.653L83.3051 129.185L108.799 121.653V83.9909H63.0255V70.6643Z" fill="white"/>
<path d="M57.8871 25.7605H62.3986V31.2992H66.5879V25.7605H71.0994V40H66.5879V34.1995H62.3986V40H57.8871V25.7605ZM76.1446 40V29.0435H72.9221V25.7605H83.9491V29.0435H80.6561V40H76.1446ZM85.7719 25.7605H89.9611L93.5059 31.2992L97.0506 25.7605H101.341V40H96.7284V32.266L93.4052 37.8953H92.4283L88.9944 32.266V40H85.7719V25.7605ZM104.785 25.7605H109.296V37.0997H114.13V40H104.785V25.7605Z" fill="white"/>
</svg>
