<svg width="170" height="170" viewBox="0 0 170 170" fill="none" xmlns="http://www.w3.org/2000/svg">
<rect width="170" height="170" rx="85" fill="#F7D600"/>
<path d="M81.5 76.191H71.3539V110.978C68.455 120.399 56.8595 110.978 56.8595 110.978L52.5112 115.326C61.7876 129.82 81.5 121.124 81.5 110.978V76.191Z" fill="black" stroke="black" stroke-width="1.44944"/>
<path d="M123.611 81.7829L119.253 88.5566C113.442 83.539 96.0092 79.5286 101.82 91.5671C123.611 99.0934 119.253 96.8355 123.611 101.351C126.516 104.362 126.295 111.888 123.611 115.651C113.732 129.5 96.7355 121.421 89.4719 115.651L96.0092 108.125C109.084 122.425 130.148 108.125 98.9146 101.351C95.0407 99.5952 88.7456 93.2229 94.5564 81.7829C100.367 70.3429 116.347 77.0162 123.611 81.7829Z" fill="black"/>
<circle cx="30.0449" cy="104.455" r="13.0449" fill="#22171D"/>
<circle cx="30.045" cy="104.455" r="8.69663" fill="#22171D"/>
<rect x="25.6967" y="24.736" width="120.303" height="7.24719" fill="#1F1C00"/>
<rect x="25.6967" y="84.1629" width="52.1798" height="7.24719" transform="rotate(-90 25.6967 84.1629)" fill="#1F1C00"/>
<rect x="138.753" y="145.039" width="120.303" height="7.24719" transform="rotate(-90 138.753 145.039)" fill="#1F1C00"/>
<rect x="25.6967" y="137.792" width="120.303" height="7.24719" fill="#1F1C00"/>
<rect x="25.6967" y="137.792" width="13.0449" height="8.69663" transform="rotate(-90 25.6967 137.792)" fill="#1F1C00"/>
</svg>
