<svg width="170" height="170" viewBox="0 0 170 170" fill="none" xmlns="http://www.w3.org/2000/svg">
<rect width="170" height="170" rx="85" fill="white"/>
<path d="M49.2942 118.897V99.9803C49.3869 94.8803 53.0775 84.5691 67.0978 84.124C81.118 83.6789 97.7903 83.9385 104.374 84.124C107.958 84.38 114.624 81.0455 118.142 72.9968V32.6606C115.964 28.5806 108.38 20.3094 95.4722 19.8643C82.5646 19.4192 72.6614 19.6789 69.3232 19.8643C64.4087 21.4407 54.4127 26.2068 53.7451 32.6606C53.0775 39.1144 53.4669 46.8478 53.7451 49.9078H86.014V53.8023H39.0015C32.5107 54.5441 19.4177 60.423 18.9726 78.004C18.5275 95.585 18.7871 97.9403 18.9726 96.9203C19.6216 103.318 23.7573 116.671 35.107 118.897H49.2942Z" fill="#3970A2" stroke="white" stroke-width="0.834541"/>
<path d="M123.706 54.915V73.8313C123.613 78.9313 119.923 89.2425 105.902 89.6876C91.882 90.1327 75.2097 89.873 68.6261 89.6876C65.042 89.4316 58.3765 92.766 54.8578 100.815V141.151C57.0364 145.231 64.6203 153.502 77.5278 153.947C90.4354 154.392 100.339 154.133 103.677 153.947C108.591 152.371 118.587 147.605 119.255 141.151C119.923 134.697 119.533 126.964 119.255 123.904H86.986V120.009H133.998C140.489 119.267 153.582 113.389 154.027 95.8075C154.473 78.2265 154.213 75.8713 154.027 76.8913C153.378 70.4931 149.243 57.1405 137.893 54.915H123.706Z" fill="#FED141" stroke="white" stroke-width="0.834541"/>
<circle cx="67.9322" cy="35.7206" r="6.39815" fill="white" stroke="white" stroke-width="1.66908"/>
<circle cx="104.096" cy="136.978" r="6.39815" fill="white" stroke="white" stroke-width="1.66908"/>
</svg>
